<svg width="1800" height="500" viewBox="0 0 1800 500" fill="none" xmlns="http://www.w3.org/2000/svg">
<rect width="1800" height="500" fill="black"/>
<path d="M349.722 118.024C317.133 118.024 262.25 101.858 243.297 141.87C214.118 203.469 290.836 239.039 309.978 285.831C318.256 306.067 333.561 328.499 317.706 348.317C304.766 364.492 287.782 372.384 267.143 372.384C244.612 372.384 219.869 375.468 198.695 368.41" stroke="white" stroke-width="15" stroke-linecap="round"/>
<path d="M381.517 217.383C381.517 257.422 381.517 297.46 381.517 337.498C381.517 349.942 378.093 361.201 382.4 342.356C385.076 330.65 389.463 309.732 397.415 300.845C439.846 253.422 453.056 313.397 453.056 352.512" stroke="white" stroke-width="15" stroke-linecap="round"/>
<path d="M508.697 225.332V368.41" stroke="white" stroke-width="15" stroke-linecap="round"/>
<path d="M504.722 165.716C504.31 162.007 502.723 160.729 500.748 157.768" stroke="white" stroke-width="15" stroke-linecap="round"/>
<path d="M576.262 177.64V400.205" stroke="white" stroke-width="15" stroke-linecap="round"/>
<path d="M536.518 213.409H616.005" stroke="white" stroke-width="15" stroke-linecap="round"/>
<path d="M691.519 185.588C691.519 257.536 691.519 328.46 691.519 400.205" stroke="white" stroke-width="15" stroke-linecap="round"/>
<path d="M647.801 229.307C677.416 229.307 704.883 229.307 735.237 229.307" stroke="white" stroke-width="15" stroke-linecap="round"/>
<path d="M751.135 173.665C751.135 185.669 774.827 220.016 786.904 221.358C804.715 223.337 814.523 209.424 828.414 201.486C839.389 195.215 857.85 171.827 848.507 205.46C842.738 226.228 838.958 249.588 829.739 269.05C815.681 298.73 797.084 341.237 791.099 374.151C786.787 397.869 767.032 421.014 767.032 443.923" stroke="white" stroke-width="15" stroke-linecap="round"/>
<path d="M977.674 125.973C977.674 223.208 981.648 319.198 981.648 416.102" stroke="white" stroke-width="15" stroke-linecap="round"/>
<path d="M918.059 125.973C963.961 125.973 1007.95 129.947 1053.19 129.947" stroke="white" stroke-width="15" stroke-linecap="round"/>
<path d="M926.007 420.077C954.49 420.077 982.973 420.077 1011.46 420.077C1039.35 420.077 1068.93 428.026 1096.91 428.026" stroke="white" stroke-width="15" stroke-linecap="round"/>
<path d="M1160.5 237.255C1135.77 240.002 1135.21 281.662 1130.69 298.858C1124.42 322.667 1129.79 362.038 1142.83 382.541C1156.21 403.562 1156.86 412.128 1185.23 412.128C1202.78 412.128 1217.59 416.102 1236.01 416.102" stroke="white" stroke-width="15" stroke-linecap="round"/>
<path d="M1319.47 269.05C1251.19 269.05 1224.69 412.128 1295.62 412.128C1316.27 412.128 1321.32 411.745 1334.49 394.023C1344.7 380.268 1353.04 366.015 1351.05 348.096C1347.49 316.108 1329.01 293.702 1319.47 265.076" stroke="white" stroke-width="15" stroke-linecap="round"/>
<path d="M1394.98 420.077C1378.36 418.23 1375.11 364.968 1375.11 353.175C1375.11 339.975 1376.47 327.514 1379.31 314.756C1382.97 298.284 1395.21 268.437 1416.84 273.246C1453.77 281.452 1438.7 394.779 1438.7 424.051" stroke="white" stroke-width="15" stroke-linecap="round"/>
<path d="M1518.19 201.486C1477.5 201.486 1470.5 226.409 1470.5 264.634C1470.5 304.132 1529.09 322.611 1554.18 344.564C1567.27 356.014 1580.89 360.441 1588.85 376.359C1594.69 388.049 1599.99 417.769 1589.73 428.026C1576.69 441.062 1524.68 432 1506.27 432" stroke="white" stroke-width="15" stroke-linecap="round"/>
</svg>
